<svg viewBox="0 0 14.47 14.5" fill="currentColor" class="w-5">
    <path d="M1113.73,68.517a0.431,0.431,0,0,1-.05,0,0.559,0.559,0,0,1-.56-0.515,5.656,5.656,0,0,0-5.13-5.125,0.566,0.566,0,0,1,.1-1.128,6.839,6.839,0,0,1,6.16,6.151A0.571,0.571,0,0,1,1113.73,68.517Zm-5.5-2.145a2.281,2.281,0,0,1,1.39,1.431,0.566,0.566,0,0,1-.35.716,0.557,0.557,0,0,1-.18.029,0.568,0.568,0,0,1-.54-0.387,1.135,1.135,0,0,0-.7-0.721A0.567,0.567,0,0,1,1108.23,66.372Zm-0.11-2.348a4.55,4.55,0,0,1,3.85,3.85,0.562,0.562,0,0,1-.48.641,0.451,0.451,0,0,1-.08.006,0.564,0.564,0,0,1-.56-0.486,3.419,3.419,0,0,0-2.89-2.889A0.566,0.566,0,0,1,1108.12,64.024Zm-2.95,2.724a4.5,4.5,0,0,0-.76.374c-0.53.537-.86,1.411,1.11,3.387A4.281,4.281,0,0,0,1107.95,72a1.35,1.35,0,0,0,.96-0.44,4.83,4.83,0,0,0,.35-0.725,2.077,2.077,0,0,1,3.38-.7l0.98,0.952s0.01,0,.01.007a2.1,2.1,0,0,1,.61,1.4,2.074,2.074,0,0,1-.49,1.449c-0.15.18-.31,0.356-0.47,0.523a5.78,5.78,0,0,1-4.16,1.777c-5.81-.043-12.62-8.509-7.65-13.486,0.18-.18.37-0.353,0.56-0.514a2.12,2.12,0,0,1,2.86.121v0.007l0.96,1A2.076,2.076,0,0,1,1105.17,66.747Zm-0.12-2.577c-0.01,0-.01,0-0.01-0.007l-0.96-.995a0.973,0.973,0,0,0-1.32-.05,5.622,5.622,0,0,0-.48.44c-2.65,2.693-1.19,6.371,1.36,8.89,2.52,2.512,6.19,3.885,8.84,1.225a5.363,5.363,0,0,0,.4-0.448,0.972,0.972,0,0,0-.05-1.321l-0.98-.952c-0.01,0-.01,0-0.01-0.006a0.935,0.935,0,0,0-1.53.313,4.3,4.3,0,0,1-.58,1.086,2.476,2.476,0,0,1-1.78.789,5.1,5.1,0,0,1-3.23-1.826c-1.29-1.236-2.78-3.343-1.1-5a4.575,4.575,0,0,1,1.12-.608A0.941,0.941,0,0,0,1105.05,64.17Z" transform="translate(-1099.78 -61.75)"/>
</svg>
