<svg viewBox="0 0 17.62 13.875"  fill="currentColor" class="w-5">
  <path d="M1252.69,76.43h-9.38a4.126,4.126,0,0,1-4.13-4.117V66.687a4.126,4.126,0,0,1,4.13-4.117h9.38a4.133,4.133,0,0,1,4.13,4.117v5.626A4.133,4.133,0,0,1,1252.69,76.43Zm2.75-9.743a2.748,2.748,0,0,0-2.75-2.744h-9.38a2.748,2.748,0,0,0-2.75,2.744v5.626a2.748,2.748,0,0,0,2.75,2.744h9.38a2.748,2.748,0,0,0,2.75-2.744V66.687Zm-4.92,4.028a4.152,4.152,0,0,1-5.01,0v0l-3.31-2.556a0.687,0.687,0,0,1-.12-0.963,0.7,0.7,0,0,1,.97-0.121l3.3,2.554a2.772,2.772,0,0,0,3.34,0l3.4-2.59a0.7,0.7,0,0,1,.97.129,0.687,0.687,0,0,1-.13.962Z" transform="translate(-1239.19 -62.563)"/>
</svg>
