<svg viewBox="0 0 128 128"  fill="currentColor" class="w-5"> 
<path d="M76.5,117.3H50.4v-42H33.9V50.1h16.6V38.3c0-0.9,0-11.3,7.7-19.2c5.4-5.6,13.2-8.4,23.1-8.4
	c4.1,0.1,8.2,0.4,12.2,1l2.8,0.4v22.9H85.4c-2.9,0.1-6.2,0.5-7.2,0.9c-0.1,0.1-0.2,0.2-0.3,0.3c-1,0.8-1.4,1.3-1.4,1.9v11.9h19.1
	l-2.7,25.1H76.5V117.3z M56.9,110.8H70v-42h17l1.3-12.1H70V38.3c0-3.8,2.5-5.9,3.7-6.9c0.1-0.1,0.2-0.2,0.3-0.3l0.1-0.1
	c1.6-1.4,5.4-2.2,11.2-2.3l4.3,0V17.8c-2.8-0.3-5.7-0.5-8.5-0.6c-8,0-14.2,2.2-18.4,6.4c-5.9,6.1-5.8,14.4-5.8,14.5l0,0.1v18.4H40.4
	v12.1h16.6V110.8z"/>
</svg>
