<svg xmlns="http://www.w3.org/2000/svg" width="21" height="21" viewBox="0 0 21 21">
  <defs>
    <style>
      .cls-1 {
        fill: #fff;
        fill-rule: evenodd;
      }
    </style>
  </defs>
  <path id="Shape_318_2" data-name="Shape 318 2" class="cls-1" d="M1370.95,4501.86l-2.44,14.38a3.3,3.3,0,0,1-5.09,2.2l-4.4-2.93a0.818,0.818,0,1,1,.91-1.36l4.4,2.93a1.675,1.675,0,0,0,2.57-1.11l2.44-14.39a1.669,1.669,0,0,0-2.33-1.79l-14.39,6.43a1.647,1.647,0,0,0-.98,1.38,1.629,1.629,0,0,0,.74,1.52l2.01,1.34a0.822,0.822,0,0,1-.91,1.37l-2.01-1.34a3.314,3.314,0,0,1,.48-5.77l14.39-6.43A3.3,3.3,0,0,1,1370.95,4501.86Zm-6.43,1.75a0.817,0.817,0,1,1,1.15,1.16l-7.71,7.64a2.785,2.785,0,0,0-.83,1.98v3.79a0.82,0.82,0,1,1-1.64,0v-3.79a4.453,4.453,0,0,1,1.31-3.14Z" transform="translate(-1350 -4498)"/>
</svg>
