<svg xmlns="http://www.w3.org/2000/svg" xmlns:xlink="http://www.w3.org/1999/xlink" viewBox="0 0 117 117"><defs><style>.cls-1{fill:url(#linear-gradient);}.cls-2{fill:url(#linear-gradient-2);}.cls-3{fill:url(#linear-gradient-3);}</style><linearGradient id="linear-gradient" x1="105.95" y1="12.3" x2="3.93" y2="111.64" gradientUnits="userSpaceOnUse"><stop offset="0" stop-color="#4845a2"/><stop offset="0.19" stop-color="#8744a1"/><stop offset="0.3" stop-color="#a844a1"/><stop offset="0.35" stop-color="#ab429a"/><stop offset="0.42" stop-color="#b43c88"/><stop offset="0.51" stop-color="#c33269"/><stop offset="0.6" stop-color="#d7243f"/><stop offset="0.6" stop-color="#d7243e"/><stop offset="0.88" stop-color="#f9a326"/><stop offset="1" stop-color="#f9dd26"/></linearGradient><linearGradient id="linear-gradient-2" x1="106.2" y1="12.19" x2="4.07" y2="111.64" xlink:href="#linear-gradient"/><linearGradient id="linear-gradient-3" x1="105.73" y1="11.71" x2="3.59" y2="111.15" xlink:href="#linear-gradient"/></defs><title>icon-insta</title><g id="Layer_2" data-name="Layer 2"><g id="Layer_1-2" data-name="Layer 1"><path class="cls-1" d="M82.63,117H34.37A34.37,34.37,0,0,1,0,82.63V34.37A34.37,34.37,0,0,1,34.37,0H82.63A34.37,34.37,0,0,1,117,34.38V82.63A34.37,34.37,0,0,1,82.63,117ZM3,33.69V82.31A31.69,31.69,0,0,0,34.69,114H83.32A31.68,31.68,0,0,0,115,82.32V33.69A31.69,31.69,0,0,0,83.31,2H34.69A31.69,31.69,0,0,0,3,33.69Z"/><path class="cls-2" d="M58.55,89.62a31,31,0,1,1,31-31A31.07,31.07,0,0,1,58.55,89.62Zm0-59.38A28.35,28.35,0,1,0,86.9,58.58,28.38,28.38,0,0,0,58.55,30.24Z"/><path class="cls-3" d="M89.24,36a8.26,8.26,0,1,1,8.25-8.26A8.27,8.27,0,0,1,89.24,36Zm0-13.83a5.58,5.58,0,1,0,5.56,5.57A5.58,5.58,0,0,0,89.24,22.19Z"/></g></g></svg>