<svg xmlns="http://www.w3.org/2000/svg" viewBox="0 0 102.46 102.47"><defs><style>.cls-1{fill:#39ce35;}</style></defs><title>icon-whatsapp</title><g id="Layer_2" data-name="Layer 2"><g id="Layer_1-2" data-name="Layer 1"><path class="cls-1" d="M51.25,102.47a50.91,50.91,0,0,1-27.59-8.08L2.41,101.18,9.3,80.63A50.7,50.7,0,0,1,0,51.23,51.28,51.28,0,0,1,51.22,0l1.5,0A51.16,51.16,0,0,1,86.53,88.25a51,51,0,0,1-35.18,14.22ZM24.11,91.1l.6.4a48,48,0,0,0,26.54,8h.09A48.21,48.21,0,0,0,86.15,18,47.77,47.77,0,0,0,51.24,3H50.6A48.29,48.29,0,0,0,3,51.23,47.79,47.79,0,0,0,12.18,79.5l.46.62-5.5,16.4Z"/><path class="cls-1" d="M67.4,80.15c-2.91,0-7.14-.88-15.11-4.19-9-3.71-17.9-11.51-25.11-21.95l-.26-.39-.09-.11c-2.29-3.13-6.12-9.33-6.12-15.79a17.31,17.31,0,0,1,5.38-13l.13-.13a8.57,8.57,0,0,1,6.16-2.23c.64,0,1.22,0,1.75.06,2.1.09,3.31.62,4.45,3.38l1.12,2.7c1.23,3,3.08,7.47,3.32,8a4.42,4.42,0,0,1,.19,4,9.25,9.25,0,0,1-1.62,2.37l-.18.2c-.33.39-.64.72-1,1.05s-.79.84-1.17,1.32c-.74.86-.74.93-.46,1.41a43.13,43.13,0,0,0,7.76,9.66,35,35,0,0,0,10.79,6.74l.46.18a1.68,1.68,0,0,0,1.84-.2,47.06,47.06,0,0,0,3.09-4.05l.66-.94a4.28,4.28,0,0,1,5.32-1.62c1.58.56,10,4.74,10.05,4.78l.79.38a5.3,5.3,0,0,1,2.62,1.93c.74,1.28.42,4.85-.73,8.12h0c-1.41,4-6.65,7.08-10.86,8A14.86,14.86,0,0,1,67.4,80.15Zm-35-54.82a5.76,5.76,0,0,0-4,1.33l-.13.14a14.29,14.29,0,0,0-4.52,10.92c0,4.09,2,9.2,5.54,14l.07.09.33.47c6.89,10,15.34,17.39,23.79,20.89C64.89,77.94,68,77.29,70,76.85c3.39-.72,7.67-3.24,8.67-6a13.74,13.74,0,0,0,.91-5.69,10.54,10.54,0,0,0-1.27-.66l-.83-.41c-2.2-1.09-8.58-4.23-9.73-4.63a1.31,1.31,0,0,0-1.85.54l-.67.93a47.1,47.1,0,0,1-3.34,4.36,4.6,4.6,0,0,1-5.19.92L56.25,66a38.31,38.31,0,0,1-11.66-7.28,46,46,0,0,1-8.36-10.39A3.79,3.79,0,0,1,37,43.52c.45-.56.89-1,1.33-1.49.28-.3.57-.6.86-.94l.17-.2a6.52,6.52,0,0,0,1.21-1.74c.12-.25.19-.58-.2-1.4-.26-.55-1.63-3.86-3.4-8.13l-1.11-2.7c-.62-1.48-.68-1.49-1.83-1.54C33.48,25.36,33,25.33,32.38,25.33Z"/></g></g></svg>