<svg xmlns="http://www.w3.org/2000/svg" viewBox="0 0 127.71 102.78"><defs><style>.cls-1{fill:#35a8e0;}</style></defs><title>icon-twitter</title><g id="Layer_2" data-name="Layer 2"><g id="Layer_1-2" data-name="Layer 1"><path class="cls-1" d="M39.42,102.78A73,73,0,0,1,0,91.24l1-2.76a50.07,50.07,0,0,0,5.83.34A48.75,48.75,0,0,0,34,80.65,26.68,26.68,0,0,1,13.14,62.5l-.77-2.41,2.49.48a22.75,22.75,0,0,0,4.56.43A26.8,26.8,0,0,1,4.24,36.91V34.06l2.23,1.22a23.6,23.6,0,0,0,5.66,2.24A26.7,26.7,0,0,1,8.06,5.35L9.15,3.48l1.37,1.68A70.26,70.26,0,0,0,59.44,30.8a27.91,27.91,0,0,1-.31-4.11A26.69,26.69,0,0,1,104.7,7.82a48.92,48.92,0,0,0,14.73-5.76l3.4-2-1.2,3.76a26.65,26.65,0,0,1-6.73,10.9A48.45,48.45,0,0,0,123,11.94l4.73-2.1-2.87,4.31a52.34,52.34,0,0,1-12.29,12.94c0,.8,0,1.63,0,2.53C112.59,65.58,85.22,102.78,39.42,102.78ZM7.34,91.88a69.93,69.93,0,0,0,32.46,8C83.72,99.85,110,64.17,110,29.68c0-1.15,0-2.2-.07-3.2l0-.81.65-.47a49,49,0,0,0,9.16-8.57,52.61,52.61,0,0,1-10,2.2l-1-2.77a23.81,23.81,0,0,0,8.83-9.32A51.87,51.87,0,0,1,104.86,11l-.81.16-.57-.61A23.73,23.73,0,0,0,63.11,32.15l.45,1.93-2-.1A73.2,73.2,0,0,1,10,8.85a23.71,23.71,0,0,0,8.33,29.71l4.35,2.91-5.23-.16a26.92,26.92,0,0,1-9.77-2.2A23.74,23.74,0,0,0,26.63,60.2l.11,2.92a26.92,26.92,0,0,1-9.5.83A23.64,23.64,0,0,0,38.5,78.09l4.22.08-3.32,2.6A51.64,51.64,0,0,1,7.34,91.88Z"/></g></g></svg>