<svg xmlns="http://www.w3.org/2000/svg" viewBox="0 0 60.18 121.67"><defs><style>.cls-1{fill:#357dff;}</style></defs><title>icon-facebook</title><g id="Layer_2" data-name="Layer 2"><g id="Layer_1-2" data-name="Layer 1"><path class="cls-1" d="M38,121.67H12v-61H0v-21H12V29.14c0-4.84,0-13.85,4.26-19.52C21.17,3.06,27.6,0,36.49,0,52,0,58.69,2.22,59,2.32l1.22.42L56.62,24.07,55,23.6a39.16,39.16,0,0,0-9.45-1.44c-2.82,0-7.54.66-7.54,5V39.67H57.68l-1.59,21H38Zm-23-3H35v-61H53.35l1.13-15H35V27c0-5.09,4-8.13,10.57-8.13A40,40,0,0,1,54.25,20L56.82,4.56c-2.52-.61-9-1.84-20.31-1.84-8,0-13.5,2.62-17.85,8.48C15,16.08,15,24.48,15,29V42.67H3v15H15Z"/></g></g></svg>